<?xml version="1.0" encoding="UTF-8"?>
<svg width="16px" height="16px" viewBox="0 0 16 16" version="1.1" xmlns="http://www.w3.org/2000/svg" xmlns:xlink="http://www.w3.org/1999/xlink">
    <!-- Generator: Sketch 41.1 (35376) - http://www.bohemiancoding.com/sketch -->
    <title>layout</title>
    <desc>Created with Sketch.</desc>
    <defs></defs>
    <g id="Page-1" stroke="none" stroke-width="1" fill="none" fill-rule="evenodd">
        <g id="Search" transform="translate(-1288.000000, -161.000000)" fill="#1ABC9C">
            <path d="M1288.56454,168.228916 L1294.66437,168.228916 C1294.98107,168.228916 1295.22892,167.981067 1295.22892,167.664372 L1295.22892,161.564544 C1295.22892,161.247849 1294.98107,161 1294.66437,161 L1288.56454,161 C1288.24785,161 1288,161.247849 1288,161.564544 L1288,167.664372 C1288,167.967298 1288.26162,168.228916 1288.56454,168.228916 L1288.56454,168.228916 Z M1289.12909,162.129088 L1294.09983,162.129088 L1294.09983,167.099828 L1289.12909,167.099828 L1289.12909,162.129088 L1289.12909,162.129088 Z M1304,161.564544 C1304,161.247849 1303.75215,161 1303.43546,161 L1297.33563,161 C1297.01893,161 1296.77108,161.247849 1296.77108,161.564544 L1296.77108,167.664372 C1296.77108,167.981067 1297.01893,168.228916 1297.33563,168.228916 L1303.43546,168.228916 C1303.75215,168.228916 1304,167.981067 1304,167.664372 L1304,161.564544 Z M1302.87091,167.099828 L1297.90017,167.099828 L1297.90017,162.129088 L1302.87091,162.129088 L1302.87091,167.099828 L1302.87091,167.099828 Z M1288.56454,177 L1294.66437,177 C1294.98107,177 1295.22892,176.752151 1295.22892,176.435456 L1295.22892,170.335628 C1295.22892,170.018933 1294.98107,169.771084 1294.66437,169.771084 L1288.56454,169.771084 C1288.24785,169.771084 1288,170.018933 1288,170.335628 L1288,176.435456 C1288,176.738382 1288.26162,177 1288.56454,177 Z M1289.12909,170.900172 L1294.09983,170.900172 L1294.09983,175.870912 L1289.12909,175.870912 L1289.12909,170.900172 L1289.12909,170.900172 Z M1303.43546,169.771084 L1297.33563,169.771084 C1297.01893,169.771084 1296.77108,170.018933 1296.77108,170.335628 L1296.77108,176.435456 C1296.77108,176.752151 1297.01893,177 1297.33563,177 L1303.43546,177 C1303.75215,177 1304,176.752151 1304,176.435456 L1304,170.335628 C1304,170.032702 1303.73838,169.771084 1303.43546,169.771084 Z M1302.87091,175.870912 L1297.90017,175.870912 L1297.90017,170.900172 L1302.87091,170.900172 L1302.87091,175.870912 L1302.87091,175.870912 Z" id="layout"></path>
        </g>
    </g>
</svg>