<?xml version="1.0" encoding="UTF-8"?>
<svg width="16px" height="16px" viewBox="0 0 16 16" version="1.1" xmlns="http://www.w3.org/2000/svg" xmlns:xlink="http://www.w3.org/1999/xlink">
    <!-- Generator: Sketch 41.1 (35376) - http://www.bohemiancoding.com/sketch -->
    <title>menu</title>
    <desc>Created with Sketch.</desc>
    <defs></defs>
    <g id="Page-1" stroke="none" stroke-width="1" fill="none" fill-rule="evenodd">
        <g id="Search" transform="translate(-1261.000000, -161.000000)" fill="#95A5A6">
            <path d="M1275.91787,161 L1262.05636,161 C1261.46377,161 1261,161.463768 1261,162.056361 C1261,162.648953 1261.46377,163.112721 1262.05636,163.112721 L1275.94364,163.112721 C1276.53623,163.112721 1277,162.648953 1277,162.056361 C1276.97424,161.463768 1276.51047,161 1275.91787,161 L1275.91787,161 Z M1275.91787,174.887279 L1262.05636,174.887279 C1261.46377,174.887279 1261,175.351047 1261,175.943639 C1261,176.536232 1261.46377,177 1262.05636,177 L1275.94364,177 C1276.53623,177 1277,176.536232 1277,175.943639 C1276.97424,175.351047 1276.51047,174.887279 1275.91787,174.887279 L1275.91787,174.887279 Z M1275.91787,167.930757 L1262.05636,167.930757 C1261.46377,167.930757 1261,168.394525 1261,168.987118 C1261,169.57971 1261.46377,170.043478 1262.05636,170.043478 L1275.94364,170.043478 C1276.53623,170.043478 1277,169.57971 1277,168.987118 C1276.97424,168.394525 1276.51047,167.930757 1275.91787,167.930757 L1275.91787,167.930757 Z" id="menu"></path>
        </g>
    </g>
</svg>