<?xml version="1.0" encoding="UTF-8"?>
<svg width="16px" height="16px" viewBox="0 0 16 16" version="1.1" xmlns="http://www.w3.org/2000/svg" xmlns:xlink="http://www.w3.org/1999/xlink">
    <!-- Generator: Sketch 41.1 (35376) - http://www.bohemiancoding.com/sketch -->
    <title>Shape</title>
    <desc>Created with Sketch.</desc>
    <defs></defs>
    <g id="Symbols" stroke="none" stroke-width="1" fill="none" fill-rule="evenodd">
        <g id="footer" transform="translate(-1280.000000, -182.000000)" fill="#BDC3C7">
            <g id="content">
                <g transform="translate(335.000000, 17.000000)">
                    <g id="cols">
                        <g id="payment" transform="translate(600.000000, 132.000000)">
                            <g id="logos" transform="translate(0.000000, 29.000000)">
                                <path d="M353,4 C348.581741,4 345,7.58174118 345,12 C345,16.4182588 348.581741,20 353,20 C357.418259,20 361,16.4184471 361,12 C361,7.58155294 357.418259,4 353,4 L353,4 Z M352.960094,16.4737882 C352.960094,16.4737882 352.588894,16.7205647 352.335153,16.7194353 C352.312565,16.7297882 352.2992,16.7358118 352.2992,16.7358118 L352.299765,16.7194353 C352.246494,16.7169882 352.192847,16.7094588 352.138824,16.6959059 L352.058635,16.6761412 C351.615529,16.5662118 351.380988,16.1268706 351.491294,15.6839529 L352.108141,13.1971765 L352.386541,12.0739765 C352.645553,11.0311529 351.565271,12.2957176 351.343718,11.8153412 C351.197459,11.4977882 352.184,10.8314353 352.904753,10.3290353 C352.904753,10.3290353 353.275576,10.0826353 353.529506,10.0835765 C353.552282,10.0730353 353.565647,10.0672 353.565647,10.0672 L353.564706,10.0835765 C353.618353,10.0860235 353.672,10.0935529 353.726024,10.1069176 L353.806212,10.1268706 C354.249318,10.2368 354.519247,10.6849882 354.409318,11.1279059 L353.792659,13.6148706 L353.513694,14.7380706 C353.255059,15.7808941 354.317459,14.5114353 354.538824,14.9923765 C354.685082,15.3095529 353.680659,15.9713882 352.960094,16.4737882 L352.960094,16.4737882 Z M354.523576,8.7008 C354.3696,9.32103529 353.742024,9.6992 353.121976,9.54522353 C352.501553,9.39124706 352.123388,8.76385882 352.277365,8.14343529 C352.431341,7.52301176 353.058918,7.14503529 353.678965,7.29901176 C354.299388,7.4528 354.677365,8.08037647 354.523576,8.7008 L354.523576,8.7008 Z" id="Shape"></path>
                            </g>
                        </g>
                    </g>
                </g>
            </g>
        </g>
    </g>
</svg>