<?xml version="1.0" encoding="UTF-8"?>
<svg width="270px" height="37px" viewBox="0 0 270 37" version="1.1" xmlns="http://www.w3.org/2000/svg" xmlns:xlink="http://www.w3.org/1999/xlink">
    <!-- Generator: Sketch 41.2 (35397) - http://www.bohemiancoding.com/sketch -->
    <title>logo</title>
    <desc>Created with Sketch.</desc>
    <defs></defs>
    <g id="Page-1" stroke="none" stroke-width="1" fill="none" fill-rule="evenodd">
        <g id="Artboard" transform="translate(-168.000000, -138.000000)" fill="#1ABC9C">
            <g id="logo" transform="translate(168.000000, 135.000000)">
                <text id="Ventas-Verdes" font-family="BernadetteRough, Bernadette Rough" font-size="40" font-weight="normal">
                    <tspan x="13.34" y="38">Ventas Verdes</tspan>
                </text>
                <g id="leave1" transform="translate(265.008954, 19.392852) scale(-1, 1) rotate(-119.000000) translate(-265.008954, -19.392852) translate(258.008954, 15.892852)">
                    <path d="M5.64309028,2.03631867 C5.61501237,2.03654313 5.58716182,2.03429854 5.55931127,2.03272734 C5.56203949,2.02397346 5.56442668,2.00747579 5.56749592,2.00736356 C5.59500545,2.00657795 5.62262865,2.00826139 5.65013817,2.00938368 C5.64786466,2.01892315 5.64547747,2.03620644 5.64309028,2.03631867 M9.16237701,2.20870258 C9.30913237,2.16515769 9.45747919,2.12475521 9.59946016,2.06908957 C9.89922305,1.95158569 10.0419998,1.706814 10.1056582,1.40940685 C10.1387378,1.25509182 10.0587101,1.10818392 9.92559582,1.0846158 C9.6948341,1.04320326 9.46600486,1.04084645 9.27139203,1.20458872 C9.06109194,1.38134957 8.84794996,1.5553047 8.6426516,1.73778923 C8.25854133,2.07907796 7.80247432,2.23473974 7.29718573,2.22520026 C6.9311499,2.21812983 6.56579613,2.16661667 6.200215,2.13317239 C6.10199917,2.12419406 6.1023402,2.12116388 5.9211411,1.96191077 C5.96297376,1.94013832 6.00094145,1.90523506 6.04129634,1.90209265 C6.16270201,1.89322655 6.28501709,1.8953589 6.40687746,1.8953589 C6.69015737,1.89603228 6.94786023,1.81275828 7.17953136,1.65473969 C7.34947657,1.53858256 7.40415459,1.37573812 7.35606976,1.17507247 C7.3118499,0.989557745 7.19442288,0.889561606 7.01004085,0.856790706 C6.61911004,0.78799426 6.24454853,0.817959433 5.90772736,1.04746797 C5.75642497,1.15071875 5.61546708,1.26867154 5.4664382,1.37495251 C5.30513235,1.49021181 5.15303423,1.63083489 4.97388129,1.7056917 C4.48086968,1.91196881 3.96432719,1.92296726 3.44426075,1.81489063 C3.41800166,1.8093914 3.39685798,1.78021183 3.3461586,1.74104387 C3.46949676,1.69536663 3.57441946,1.63891538 3.68616269,1.61860191 C4.0059325,1.56001832 4.24794812,1.37270793 4.45608837,1.14892308 C4.57658464,1.01918623 4.66775257,0.850505875 4.73152465,0.684182332 C4.79415997,0.520327829 4.74732557,0.359615742 4.60557195,0.229093285 C4.46097643,0.0961017881 4.29773809,0.0870112301 4.13575018,0.149859533 C4.01025218,0.198454738 3.8958944,0.283187717 3.78778879,0.366349489 C3.55122961,0.548272878 3.42118458,0.810888999 3.28363696,1.06475125 C3.02150074,1.54834649 2.65614696,1.87246416 2.07549136,1.92173274 C1.81812953,1.94350519 1.54257957,1.97403151 1.31647856,2.0842405 C0.962947056,2.25651218 0.603049714,2.41643867 0.252587458,2.59477073 C0.164829799,2.63955014 0.0406959091,2.65357878 5.68434189e-14,2.80508808 C0.0738892204,2.80205789 0.14300406,2.81361749 0.202229112,2.79453854 C0.449587487,2.71519256 0.689670616,2.61003388 0.940325587,2.54482877 C1.60885252,2.37087365 2.00387566,2.52137289 2.40924329,3.08263067 C2.49836506,3.20619493 2.57691498,3.33783967 2.67149318,3.45691476 C2.78460053,3.59955796 2.90020874,3.74309899 3.03252728,3.86756108 C3.19281005,4.01907038 3.39515284,4.09561063 3.61886666,4.09056032 C3.91999366,4.08371435 4.09255341,3.79539776 3.98615293,3.51157034 C3.890779,3.25669803 3.71765087,3.06534739 3.50450889,2.91496038 C3.24282737,2.73034349 2.96443552,2.56862134 2.690136,2.40162442 C2.54110713,2.3109433 2.38605344,2.22968943 2.21451677,2.13350908 C2.89668479,1.8864928 3.24680602,1.9547281 3.69230118,2.42362133 C3.89157473,2.633602 4.07879864,2.85615233 4.25704218,3.08408965 C4.51110742,3.40932962 4.83826615,3.61964697 5.22771918,3.74321122 C5.47075788,3.82031262 5.69924608,3.70527778 5.76176773,3.46364851 C5.80064483,3.31382264 5.81133035,3.15804864 5.69617684,3.03089305 C5.53305218,2.8506531 5.36674459,2.67321887 5.19600366,2.50038604 C5.10426735,2.40734811 5.00048141,2.32654315 4.85042946,2.19467394 C4.99627541,2.1887258 5.06993728,2.17413602 5.13927947,2.18535893 C5.30513235,2.21206946 5.46768863,2.26077689 5.63410989,2.28311048 C6.04743483,2.33832721 6.31684629,2.58960819 6.54442509,2.9100223 C6.71186943,3.14536675 6.88408815,3.37790547 7.0641505,3.60371044 C7.28149848,3.87609049 7.57023482,4.04095506 7.91080729,4.11603633 C8.13395273,4.16508045 8.33868271,4.03220119 8.38983679,3.80807965 C8.44485584,3.5665626 8.39461117,3.34962373 8.20841033,3.18273904 C8.08416277,3.07151999 7.93922622,2.98308345 7.80440681,2.88331177 C7.72085515,2.8213613 7.63912231,2.75716625 7.54477146,2.68477847 C7.66765492,2.63584658 7.76439296,2.60049441 7.8582891,2.55930633 C8.08802774,2.45852458 8.27934399,2.51946499 8.42962329,2.70464303 C8.51533479,2.80991393 8.58501801,2.92943794 8.65185933,3.04795188 C8.71915536,3.16725142 8.77008208,3.29541707 8.8351046,3.41617559 C9.0205097,3.76027005 9.27286981,4.0380371 9.64197489,4.19482117 C9.89376661,4.30177551 10.0775803,4.18662844 10.0762161,3.9200843 C10.074511,3.63412453 9.969702,3.38834277 9.77952251,3.17297511 C9.72825476,3.11484043 9.61264655,3.06725529 9.70392815,2.925061 C9.89410764,3.00496813 10.0929265,3.07769259 10.2819692,3.1706183 C10.5150044,3.28509199 10.7405371,3.4150533 10.9680022,3.54063768 C11.1761425,3.65556029 11.4004247,3.69719729 11.6333462,3.66768103 C11.8628575,3.63895038 11.9927889,3.40876847 11.9121928,3.19194183 C11.8009042,2.8922901 11.618,2.66659736 11.2960703,2.56312212 C11.1174858,2.50588527 10.9408337,2.47176762 10.7550876,2.4847862 C10.5410362,2.49971267 10.3274395,2.52126066 10.1131608,2.5333814 C9.79293625,2.55167475 9.47180233,2.59263837 9.15987614,2.46256483 C9.0982639,2.43675214 9.01187035,2.4767057 8.93911789,2.46817629 C8.86534234,2.45942242 8.78792917,2.43540539 8.77815306,2.31408572 C8.90410576,2.27985584 9.03392344,2.24686048 9.16237701,2.20870258" id="Fill-1"></path>
                    <path d="M12.1213788,4.41620431 C12.10626,4.31800384 12.1668491,4.22934284 12.2533563,4.22294578 C12.3394089,4.21654872 12.4229605,4.2819783 12.4395572,4.37580183 C12.4555855,4.46547289 12.4002254,4.51227243 12.3225849,4.53191253 C12.2165254,4.55884751 12.1355883,4.50935448 12.1213788,4.41620431" id="Fill-4"></path>
                    <path d="M12.4766155,2.07775366 C12.3985202,2.00435582 12.3305422,1.96664683 12.3049651,1.9098589 C12.2719992,1.83646107 12.3489576,1.72322189 12.4268255,1.69460347 C12.500601,1.66766848 12.6317828,1.75161586 12.6160956,1.83421648 C12.6019998,1.90896107 12.5384551,1.97439064 12.4766155,2.07775366" id="Fill-6"></path>
                    <path d="M10.7147554,5.38286732 C10.6107421,5.37905153 10.4952476,5.38365292 10.4944519,5.23685724 C10.4937698,5.15145089 10.6016481,5.0740128 10.6774698,5.08815367 C10.7640907,5.10442689 10.7748899,5.17524346 10.7147554,5.38286732" id="Fill-9"></path>
                </g>
                <g id="leave2" transform="translate(8.632174, 26.060409) scale(-1, 1) rotate(135.000000) translate(-8.632174, -26.060409) translate(1.632174, 21.560409)">
                    <path d="M11.5583684,5.85061442 C11.5768421,6.35386442 11.628,6.85235481 11.7674211,7.33704231 C11.7770526,7.37020096 11.7980526,7.39955192 11.8062632,7.43255192 C11.8302632,7.52774423 11.7948947,7.60342212 11.7232105,7.66133077 C11.6291053,7.73764327 11.5338947,7.72019135 11.4470526,7.64927308 C11.3360526,7.55931635 11.2632632,7.44635481 11.2798421,7.27992692 C11.3066842,7.24708558 11.3360526,7.20520096 11.3712632,7.16950385 C11.4067895,7.13348942 11.448,7.10302788 11.4802105,7.07573942 C11.4816316,7.0087875 11.4871579,6.95706635 11.4830526,6.90613846 C11.4413684,6.39987404 11.3707895,5.90185962 11.1227368,5.44906154 C11.0734737,5.35910481 11.0368421,5.25820096 11.0128421,5.15745577 C10.8628421,4.52902788 10.4401579,4.13699423 9.91105263,3.87616731 C9.44052632,3.64437404 8.96652632,3.41892692 8.49868421,3.18062885 C8.16284211,3.00991731 7.80268421,2.939475 7.43147368,2.88632596 C7.03452632,2.82984519 6.62842105,2.82667212 6.24047368,2.70323942 C6.17952632,2.68388365 6.10436842,2.68213846 6.04326316,2.69974904 C5.58284211,2.83079712 5.11231579,2.83999904 4.64005263,2.83666731 C4.55731579,2.83603269 4.47489474,2.85443654 4.32157895,2.87188846 C4.59615789,3.07861442 4.87136842,3.0859125 5.11484211,3.17602788 C5.35310526,3.26392212 5.59247368,3.34880192 5.82615789,3.44764327 C6.07531579,3.55298942 6.32305263,3.66404712 6.56321053,3.789225 C6.80368421,3.91456154 7.03752632,4.05417692 7.26805263,4.19823462 C7.48436842,4.33324904 7.69057895,4.48539808 7.90468421,4.62437885 C8.13268421,4.77224423 8.36463158,4.91297019 8.61694737,5.07051346 C8.71231579,5.0370375 8.81826316,4.98198462 8.92989474,4.96453269 C9.14305263,4.93105673 9.29778947,5.02656635 9.38084211,5.21599904 C9.444,5.36053269 9.39442105,5.51014327 9.24647368,5.62120096 C9.10294737,5.72892692 8.86421053,5.72670577 8.72763158,5.60866731 C8.67726316,5.56472019 8.64,5.50363846 8.60021053,5.44795096 C8.44626316,5.23122981 8.23136842,5.09304231 8.01063158,4.96421538 C7.974,4.94279712 7.92126316,4.95025385 7.85242105,4.94121058 C7.866,5.00895577 7.86726316,5.05750385 7.88526316,5.09796058 C8.03431579,5.43002308 8.18889474,5.75922981 8.33636842,6.09192692 C8.38815789,6.20869615 8.45778947,6.27374423 8.58126316,6.32546538 C8.79584211,6.41542212 8.85647368,6.62865288 8.77278947,6.84109038 C8.70505263,7.01227788 8.51068421,7.08684519 8.35405263,7.00117212 C8.14752632,6.88836923 8.06747368,6.76937885 8.11926316,6.54155192 C8.16915789,6.32118173 8.12147368,6.13984038 8.04189474,5.93930192 C7.68836842,5.043225 7.07178947,4.40194615 6.27126316,3.93264808 C6.16926316,3.87283558 6.05905263,3.82603269 5.949,3.78398942 C5.66684211,3.67547019 5.39257895,3.55521058 5.11957895,3.42051346 C4.73021053,3.22806635 4.30357895,3.13065288 3.84552632,3.20490288 C3.36552632,3.28248462 2.87668421,3.28692692 2.39526316,3.38767212 C1.69910526,3.53363365 1.014,3.70275865 0.377210526,4.03894615 C0.267789474,4.09685481 0.155052632,4.14825865 0.0487894737,4.05814327 C0.0116842105,4.02625385 -0.0126315789,3.90393173 0.00694736842,3.88727308 C0.110526316,3.80191731 0.225631579,3.72750865 0.344684211,3.66706154 C0.831157895,3.4200375 1.35489474,3.28264327 1.86884211,3.11589808 C2.35057895,2.95914808 2.83263158,2.81921538 3.33615789,2.74195096 C4.27721053,2.59741731 4.95757895,2.02324904 5.48684211,1.23473942 C5.53452632,1.16397981 5.57147368,1.0852875 5.62578947,0.987715385 C5.57905263,0.915369231 5.51652632,0.838263462 5.47578947,0.750686538 C5.39889474,0.585369231 5.39242105,0.416720192 5.48936842,0.252196154 C5.60336842,0.0592730769 5.82663158,0.00136442308 6.01610526,0.119244231 C6.18173684,0.222051923 6.25594737,0.452258654 6.13989474,0.618686538 C5.68878947,1.26424904 5.31536842,1.98120577 4.63705263,2.42607115 C4.58715789,2.45875385 4.55557895,2.52173942 4.464,2.63359038 C5.08263158,2.55569135 5.63921053,2.64168173 6.16863158,2.45494615 C6.40563158,2.37133558 6.63378947,2.24758558 6.84868421,2.11304712 C7.19447368,1.89664327 7.52747368,1.65850385 7.86363158,1.42575865 C8.17468421,1.21030673 8.44989474,0.956619231 8.66115789,0.583465385 C8.64931579,0.529681731 8.62263158,0.448609615 8.61505263,0.365950962 C8.59057895,0.0929076923 8.76142105,-0.0500394231 9.02573684,0.0159605769 C9.18505263,0.0561 9.25784211,0.255527885 9.15426316,0.386258654 C9.07973684,0.480181731 8.98894737,0.559984615 8.91157895,0.651845192 C8.82331579,0.757191346 8.73821053,0.866027885 8.65942105,0.978672115 C8.63194737,1.01785962 8.62705263,1.07354712 8.60810526,1.132725 C8.83484211,1.13780192 9.05021053,1.14383077 9.26557895,1.14763846 C9.64594737,1.15382596 10.0147895,1.31946058 10.4082632,1.198725 C10.5786316,1.14652788 10.7745789,1.36071058 10.8246316,1.58108077 C10.8636316,1.75290288 10.7777368,1.90346538 10.5901579,1.9927875 C10.3078421,2.12716731 10.0267895,1.9762875 9.94373684,1.64644615 C9.93173684,1.59758077 9.91736842,1.54903269 9.89494737,1.46796058 C9.17542105,1.29629712 8.48084211,1.25631635 7.82826316,1.74179712 C7.50315789,1.98310962 7.14284211,2.17349423 6.80005263,2.38989808 C6.74715789,2.42305673 6.70263158,2.47017692 6.66189474,2.5042875 C6.69236842,2.62454712 6.771,2.59868654 6.83084211,2.60646058 C7.215,2.65770577 7.60515789,2.67737885 7.98078947,2.76511442 C8.27210526,2.83333558 8.54621053,2.98262885 8.82584211,3.10130192 C8.98089474,3.16682596 9.12852632,3.25202308 9.28515789,3.31326346 C9.65052632,3.45589327 10.0184211,3.39036923 10.3708421,3.27248942 C10.8042632,3.1271625 11.2204737,2.93630192 11.526,2.54537885 C11.5076842,2.444475 11.4757895,2.34420577 11.4742105,2.24330192 C11.4718421,2.05482115 11.5945263,1.89505673 11.7603158,1.8649125 C12.0214737,1.81810962 12.1762105,1.93043654 12.1457368,2.18935962 C12.1354737,2.27535 12.1256842,2.36118173 12.1162105,2.44288846 C11.7887368,2.67610962 11.4841579,2.92583077 11.1502105,3.12192692 C10.8211579,3.31516731 10.4625789,3.45414808 10.0929474,3.62803269 C10.3883684,3.88394135 10.7283158,3.88584519 11.0523158,3.91345096 C11.3365263,3.937725 11.6246842,3.92566731 11.9104737,3.91329231 C12.1812632,3.90155192 12.4318421,3.85950865 12.6274737,3.60645577 C12.7886842,3.39861923 12.9955263,3.45779712 13.1046316,3.6964125 C13.1647895,3.82809519 13.1602105,3.89060481 13.0634211,4.15968173 C12.9410526,4.15698462 12.7896316,4.19664808 12.6838421,4.1419125 C12.4831579,4.03783558 12.2963684,4.07020096 12.0945789,4.09780673 C11.8784211,4.12699904 11.6586316,4.13144135 11.4404211,4.1377875 C11.2225263,4.14429231 11.0043158,4.13969135 10.7363684,4.13985 C10.7810526,4.25106635 10.7963684,4.33324904 10.8407368,4.39242692 C11.1489474,4.80683077 11.4592105,5.21933077 11.7775263,5.62500865 C11.883,5.75970577 12.0105789,5.87695096 12.1348421,5.99467212 C12.2349474,6.08907115 12.3418421,6.17204712 12.4970526,6.12318173 C12.5374737,6.11048942 12.5952632,6.13412885 12.6378947,6.15570577 C12.7654737,6.22043654 12.8298947,6.39606635 12.7741579,6.50886923 C12.7176316,6.6231 12.5442632,6.65324423 12.4181053,6.55821058 C12.3374211,6.49792212 12.2698421,6.41811923 12.1984737,6.34497981 C12.0093158,6.15142212 11.8315263,5.94358558 11.5777895,5.83411442 C11.5752632,5.80143173 11.5798421,5.76525865 11.5678421,5.73654231 C11.5602632,5.71877308 11.5282105,5.71131635 11.5054737,5.70274904 C11.5032632,5.70211442 11.4819474,5.73479712 11.4857368,5.74177788 C11.5070526,5.77969615 11.5334211,5.8146 11.5583684,5.85061442" id="Fill-1"></path>
                    <path d="M8.08984737,3.96845625 C8.07847895,3.9665524 8.02621579,3.96607644 7.97932105,3.94925913 C7.81653158,3.89119183 7.75242632,3.64162933 7.87305789,3.51930721 C7.93100526,3.4609226 8.00474211,3.40380721 8.08068947,3.38334087 C8.19311053,3.35319663 8.31563684,3.34637452 8.41179474,3.44585048 C8.49626842,3.53263413 8.5029,3.70302837 8.43153158,3.8345524 C8.36300526,3.96052356 8.25247895,3.98035529 8.08984737,3.96845625" id="Fill-4"></path>
                    <path d="M6.30413684,5.27796923 C6.07834737,5.30462308 5.96813684,5.19689712 5.86692632,5.07838269 C5.78245263,4.97922404 5.81797895,4.83104135 5.93261053,4.77218077 C6.14087368,4.66524808 6.31234737,4.68523846 6.43503158,4.83262788 C6.50576842,4.917825 6.54382105,5.02570962 6.48461053,5.11915673 C6.43503158,5.19737308 6.34218947,5.24592115 6.30413684,5.27796923" id="Fill-6"></path>
                    <path d="M10.2398526,6.32843221 C10.0762737,6.31399471 9.94490526,6.11012452 9.9678,5.90593702 C9.98232632,5.7750476 10.1024842,5.69952837 10.2689053,5.71682163 C10.4599579,5.73681202 10.5562737,5.8599274 10.5426947,6.06570144 C10.5319579,6.22721106 10.3991684,6.34271106 10.2398526,6.32843221" id="Fill-8"></path>
                    <path d="M7.20307895,6.95065673 C7.18239474,6.98413269 7.15823684,7.05060865 7.11260526,7.09233462 C7.01123684,7.18467115 6.87307895,7.17293077 6.7485,7.07742115 C6.62818421,6.98476731 6.56502632,6.83880577 6.60702632,6.7225125 C6.62297368,6.67777212 6.65913158,6.62985865 6.69860526,6.60653654 C6.90260526,6.48675288 7.19865789,6.67332981 7.20307895,6.95065673" id="Fill-10"></path>
                    <path d="M9.27528947,2.03276827 C9.32960526,2.05450385 9.40981579,2.07497019 9.47723684,2.11685481 C9.55981579,2.16857596 9.57955263,2.32564327 9.50644737,2.38545577 C9.41897368,2.45716731 9.32013158,2.52443654 9.21513158,2.55949904 C9.06813158,2.60852308 8.93928947,2.51745577 8.91781579,2.37752308 C8.89444737,2.22569135 8.96676316,2.09924423 9.10286842,2.06053269 C9.15023684,2.04736442 9.20028947,2.04450865 9.27528947,2.03276827" id="Fill-12"></path>
                    <path d="M6.98188421,1.10702308 C6.8442,1.11590769 6.72672632,1.0131 6.71030526,0.869676923 C6.69009474,0.692301923 6.81246316,0.5407875 6.99293684,0.519369231 C7.12635789,0.5036625 7.27493684,0.626143269 7.27098947,0.748306731 C7.26498947,0.929172115 7.12935789,1.0976625 6.98188421,1.10702308" id="Fill-14"></path>
                    <path d="M12.6237,5.13272163 C12.6420158,4.97327452 12.8044895,4.8403226 12.9363316,4.87713029 C13.0692789,4.91409663 13.1457,5.0754476 13.1153842,5.25425048 C13.0965947,5.36562548 13.0160684,5.42781779 12.9015947,5.42004375 C12.7215947,5.40735144 12.6057,5.2878851 12.6237,5.13272163" id="Fill-16"></path>
                    <path d="M12.7489105,8.09244087 C12.6748579,8.07990721 12.6230684,8.0792726 12.5772789,8.06229663 C12.4313842,8.00771971 12.3510158,7.85382548 12.4026474,7.73864279 C12.4468579,7.63932548 12.5856474,7.59395048 12.7088053,7.63900817 C12.8362263,7.68549375 12.9268579,7.8482726 12.8753842,7.9682149 C12.8521737,8.02215721 12.7868053,8.0569024 12.7489105,8.09244087" id="Fill-18"></path>
                    <path d="M3.32725263,6.9151726 C3.44257547,6.84348142 3.506222,6.80412648 3.56986853,6.76427019 C3.61395397,6.82568396 3.68927876,6.88484172 3.69540984,6.94901284 C3.7003731,7.0096746 3.63409897,7.07585107 3.59877222,7.13927019 C3.51936004,7.07384573 3.44082373,7.0089226 3.32725263,6.9151726" id="Fill-21"></path>
                </g>
                <g id="leave4" transform="translate(134.000000, 23.000000)">
                    <path d="M2.51969552,2.18535692 C2.76596418,2.27563385 3.02844179,2.33951077 3.25115821,2.47566462 C3.71109851,2.75738769 4.17882985,2.99664923 4.70235224,3.09468 C4.81554627,3.11591077 4.92811343,3.15735692 5.03557612,3.20452615 C5.60844179,3.45671077 6.11306866,3.82141846 6.56575522,4.26892615 C6.78936716,4.49000308 7.00420299,4.72077231 7.22521791,4.94480308 C7.67754627,5.40384923 8.20975522,5.72083385 8.79927761,5.92658769 C9.14503881,6.04751077 9.43832239,5.79938769 9.36238209,5.46292615 C9.34984478,5.40735692 9.31823284,5.35326462 9.2869791,5.30443385 C9.11539701,5.03360308 8.86214328,4.88249538 8.57781493,4.79028 C8.27181493,4.69114154 7.96250149,4.60400308 7.65327761,4.51889538 C7.40029254,4.44892615 7.12536716,4.43323385 6.8967403,4.31295692 C6.65432239,4.18538769 6.4549791,3.96218769 6.23665075,3.78080308 C6.20226269,3.75209538 6.16527761,3.72624923 6.13438209,3.69366462 C6.09748657,3.65498769 6.0248597,3.63071077 6.07169552,3.53840308 C6.27829254,3.50249538 6.48990448,3.54403385 6.70115821,3.58548 C6.88787463,3.62166462 7.06688955,3.62424923 7.25521791,3.58280308 C7.63957612,3.49852615 8.03190448,3.52289538 8.4066806,3.68028 C9.13903881,3.98821846 9.88778507,4.24815692 10.6007104,4.61323385 C10.794591,4.71246462 11.0160537,4.75298769 11.2279343,4.80477231 C11.4021134,4.84741846 11.5742328,4.82194154 11.7319343,4.74006462 C11.9484716,4.62744923 11.9909194,4.37554154 11.8316955,4.17144923 C11.6253672,3.90735692 11.3586806,3.81191077 11.0535761,3.86369538 C10.5264716,3.95332615 9.99650149,3.93874154 9.46250149,3.88289538 C9.20996418,3.85658769 9.06300896,3.79474154 8.86115821,3.57292615 C9.00587463,3.56074154 9.13223284,3.55086462 9.2586806,3.53988 C9.3289791,3.53378769 9.40366567,3.53904923 9.46912836,3.51754154 C9.91724776,3.36911077 10.3633075,3.21957231 10.7747104,2.97634154 C11.0365612,2.82163385 11.2083224,2.59944923 11.3241134,2.32455692 C11.4764418,1.96169538 11.2657254,1.65486462 10.8809194,1.65440308 C10.6114567,1.65431077 10.410591,1.78455692 10.2774269,2.00646462 C10.1200836,2.26843385 9.97142687,2.54000308 9.85294925,2.82394154 C9.70500896,3.17831077 9.43957612,3.34123385 9.09157612,3.37871077 C8.87888955,3.40123385 8.65859104,3.40400308 8.44465075,3.37732615 C8.1546806,3.34123385 7.87035224,3.33532615 7.58584478,3.38203385 C7.48796418,3.39818769 7.38703881,3.42264923 7.30814328,3.32360308 C7.49244179,3.21274154 7.67942687,3.10834154 7.85844179,2.99166462 C8.10238209,2.83289538 8.20312836,2.56566462 8.28551642,2.29594154 C8.33324776,2.13864923 8.20617313,1.95061846 8.05357612,1.90677231 C7.79459104,1.83237231 7.51715821,1.94046462 7.38829254,2.17843385 C7.34056119,2.26751077 7.31906866,2.37181846 7.28521791,2.46938769 C7.2269194,2.63646462 7.17721791,2.80677231 7.04477015,2.93203385 C6.92978507,3.04058769 6.82438209,3.15994154 6.71199403,3.27791077 C6.52393433,3.28760308 6.33793433,3.31095692 6.15193433,3.30338769 C5.95088955,3.29498769 5.73659104,3.29812615 5.55202388,3.22492615 C5.11277015,3.05028 4.66303881,2.93129538 4.21232239,2.80981846 C4.15160597,2.79357231 4.09805373,2.74298769 3.98539701,2.67440308 C4.25718806,2.61144923 4.47336716,2.62428 4.6849791,2.63166462 C5.00736716,2.64292615 5.32339701,2.60101846 5.61524776,2.48932615 C5.98903881,2.34597231 6.32978507,2.14252615 6.50002388,1.72381846 C6.57032239,1.55074154 6.55903881,1.40341846 6.46733731,1.25498769 C6.33327761,1.03788 6.12023284,0.877633846 5.84181493,0.980003077 C5.6226806,1.06058769 5.41921791,1.14680308 5.25175522,1.31563385 C5.07811343,1.49046462 4.91136716,1.66972615 4.7989791,1.89624923 C4.59506866,2.30664923 4.2966806,2.49449538 3.82205373,2.41141846 C3.25688955,2.31200308 2.72118806,2.14012615 2.21145672,1.85332615 C2.0547403,1.76508 1.9146806,1.66824923 1.79029254,1.53034154 C1.52844179,1.23957231 1.25736716,0.956833846 0.9768,0.685633846 C0.689068657,0.407510769 0.365337313,0.181541538 0.00265074627,-2.76923077e-05 C-0.0183940299,0.166772308 0.0908597015,0.197326154 0.175934328,0.250310769 C0.89199403,0.698649231 1.4766806,1.29911077 1.9769194,1.99123385 C2.39217313,2.56603385 2.79005373,3.15449538 3.20288955,3.73104923 C3.39721791,4.00215692 3.61303881,4.25674154 3.91841194,4.39806462 C4.19414328,4.52563385 4.44623284,4.39741846 4.51984478,4.10092615 C4.56802388,3.90708 4.51653134,3.72901846 4.37163582,3.60606462 C4.16745672,3.43271077 3.95315821,3.26360308 3.72220299,3.13668 C3.42506866,2.97329538 3.11047164,2.84323385 2.79703881,2.71815692 C2.55632239,2.62206462 2.42056119,2.45101846 2.33933731,2.17557231 C2.41572537,2.17880308 2.47205373,2.16781846 2.51969552,2.18535692" id="Fill-1"></path>
                </g>
            </g>
        </g>
    </g>
</svg>