<?xml version="1.0" encoding="UTF-8"?>
<svg width="19px" height="18px" viewBox="0 0 19 18" version="1.1" xmlns="http://www.w3.org/2000/svg" xmlns:xlink="http://www.w3.org/1999/xlink">
    <!-- Generator: Sketch 41.1 (35376) - http://www.bohemiancoding.com/sketch -->
    <title>Shape Copy 4</title>
    <desc>Created with Sketch.</desc>
    <defs></defs>
    <g id="Page-1" stroke="none" stroke-width="1" fill="none" fill-rule="evenodd">
        <g id="Search" transform="translate(-232.000000, -569.000000)" stroke="#F1C40F">
            <g id="filters" transform="translate(142.000000, 161.000000)">
                <g id="rating" transform="translate(0.000000, 355.000000)">
                    <g id="4" transform="translate(1.000000, 54.000000)">
                        <g id="stars">
                            <path d="M90.4473804,5.73270325 C90.2565581,5.75580279 90.0878311,5.88335242 90.0245584,6.07718769 C89.9612858,6.27102296 90.0245584,6.47289286 90.1651643,6.60044249 C91.7379417,8.03562696 94.1011251,10.1848885 94.1011251,10.1848885 C94.1011251,10.1848885 93.4523293,13.311361 93.022477,15.3973499 C92.9863212,15.5861636 93.0546155,15.7860248 93.2193252,15.9055398 C93.3830307,16.0250548 93.5939395,16.0270635 93.7596536,15.933661 C95.6116341,14.8811254 98.3855876,13.2983048 98.3855876,13.2983048 C98.3855876,13.2983048 101.160545,14.8811254 103.009513,15.9346653 C103.17824,16.0270635 103.389149,16.0250548 103.552854,15.9055398 C103.717564,15.7860248 103.785858,15.5861636 103.748698,15.3983543 C103.318846,13.311361 102.673063,10.1848885 102.673063,10.1848885 C102.673063,10.1848885 105.036246,8.03562696 106.609024,6.60345547 C106.74963,6.47188853 106.811898,6.27001863 106.74963,6.07718769 C106.687361,5.88435675 106.518634,5.75680711 106.327812,5.7347119 C104.210689,5.49769053 101.036009,5.14617579 101.036009,5.14617579 C101.036009,5.14617579 99.7203393,2.23563375 98.8435611,0.295272382 C98.7612062,0.121523667 98.5884618,0 98.3855876,0 C98.1827134,0 98.0089646,0.122527995 97.9306271,0.295272382 C97.0528446,2.23563375 95.7381794,5.14617579 95.7381794,5.14617579 C95.7381794,5.14617579 92.5645035,5.49769053 90.4473804,5.73270325 Z" id="Shape-Copy-4"></path>
                        </g>
                    </g>
                </g>
            </g>
        </g>
    </g>
</svg>