<?xml version="1.0" encoding="UTF-8"?>
<svg width="17px" height="16px" viewBox="0 0 17 16" version="1.1" xmlns="http://www.w3.org/2000/svg" xmlns:xlink="http://www.w3.org/1999/xlink">
    <!-- Generator: Sketch 41.1 (35376) - http://www.bohemiancoding.com/sketch -->
    <title>Shape</title>
    <desc>Created with Sketch.</desc>
    <defs></defs>
    <g id="Page-1" stroke="none" stroke-width="1" fill="none" fill-rule="evenodd">
        <g id="Search" transform="translate(-143.000000, -543.000000)" fill="#F1C40F">
            <g id="filters" transform="translate(142.000000, 161.000000)">
                <g id="rating" transform="translate(0.000000, 355.000000)">
                    <g id="5" transform="translate(1.000000, 27.000000)">
                        <g id="stars">
                            <path d="M5.73817943,5.14617579 C5.73817943,5.14617579 2.56450349,5.49769053 0.447380426,5.73270325 C0.256558139,5.75580279 0.0878310638,5.88335242 0.0245584106,6.07718769 C-0.0387142426,6.27102296 0.0245584106,6.47289286 0.165164307,6.60044249 C1.73794169,8.03562696 4.10112507,10.1848885 4.10112507,10.1848885 C4.09911641,10.1848885 3.45232929,13.311361 3.02247698,15.3973499 C2.98632118,15.5861636 3.05461547,15.7860248 3.21932523,15.9055398 C3.38303067,16.0250548 3.59393951,16.0270635 3.75965361,15.933661 C5.61163412,14.8811254 8.38558758,13.2983048 8.38558758,13.2983048 C8.38558758,13.2983048 11.1605454,14.8811254 13.0095129,15.9346653 C13.17824,16.0270635 13.3891488,16.0250548 13.5528543,15.9055398 C13.717564,15.7860248 13.7858583,15.5861636 13.7486982,15.3983543 C13.3188459,13.311361 12.6730631,10.1848885 12.6730631,10.1848885 C12.6730631,10.1848885 15.0362465,8.03562696 16.6090238,6.60345547 C16.7496297,6.47188853 16.8118981,6.27001863 16.7496297,6.07718769 C16.6873614,5.88435675 16.5186343,5.75680711 16.3278121,5.7347119 C14.210689,5.49769053 11.0360087,5.14617579 11.0360087,5.14617579 C11.0360087,5.14617579 9.72033927,2.23563375 8.84356107,0.295272382 C8.76120619,0.121523667 8.58846181,0 8.38558758,0 C8.18271336,0 8.00896465,0.122527995 7.93062708,0.295272382 C7.05284456,2.23563375 5.73817943,5.14617579 5.73817943,5.14617579 L5.73817943,5.14617579 Z" id="Shape"></path>
                        </g>
                    </g>
                </g>
            </g>
        </g>
    </g>
</svg>